<?xml version="1.0" encoding="utf-8"?>
<!-- Generator: Adobe Illustrator 15.0.2, SVG Export Plug-In . SVG Version: 6.00 Build 0)  -->
<!DOCTYPE svg PUBLIC "-//W3C//DTD SVG 1.1//EN" "http://www.w3.org/Graphics/SVG/1.1/DTD/svg11.dtd">
<svg version="1.1" id="Layer_1" xmlns="http://www.w3.org/2000/svg" xmlns:xlink="http://www.w3.org/1999/xlink" x="0px" y="0px"
	 width="576px" height="360px" viewBox="0 0 576 360" enable-background="new 0 0 576 360" xml:space="preserve">
<path fill="none" stroke="#0D1F22" stroke-width="4" stroke-miterlimit="10" d="M62,200.5c0-28.584-1.61-57.805,0.09-86.294
	c4.306,14.435,18.283,23.687,26.366,35.727c2.592-6.686,3.886-14.67,5.685-21.626c4.117-15.927,9.067-31.374,13.996-47.06
	c2.697-8.587,4.438-23.302,10.287-30.485c2.147,46.009-2.189,92.466-3.222,138.461C114.721,210.63,115,236.146,115,256.5"/>
<path fill="none" stroke="#0D1F22" stroke-width="4" stroke-miterlimit="10" d="M132.5,117.224c0,19.374,0,36.407,7.383,50.651
	c6.436-16.224,10.864-23.468,16.191-40.184c0.979-3.071,4.659-3.081,9.426-1.691c-9.881,11.554-16.922,21.382-16.458,36.419
	c6.557,0.707,12.66-10.131,16.128-14.477c8.857-11.098,17.377-24.875,22.247-38.283c1.297-3.572,5.987-13.272,2.604-16.737
	c-3.187,2.151-4.471,8.258-5.41,11.791c-2.733,10.279-4.416,21.378-5.006,31.996c-0.605,10.888-1.409,22.169-1.104,33.079
	c0.097-10.66,1.415-19.326,4.562-29.604c1-3.266,1.529-8.293,3.921-10.788c6.24,10.489,5.109,30.917,17.516,38.104"/>
<path fill="none" stroke="#0D1F22" stroke-width="4" stroke-miterlimit="10" d="M224,130.5c-9.584,0.103-20.222,5.417-23.895,14.969
	c14.895,10.781,13.413-12.978,20.306-16.01c0.46,8.214-1.287,20.349,4.69,27.033c1.931-2.574,12.223-29.522,7.497-29.941
	c-5.005,10.148-3.895,32.587,13,28.499c6.519-1.577,7.825-10.92,9.049-16.852c3.625-17.573,5.229-36.17,5.997-54.085
	c0.208-4.851,3.604-19.907-3.637-22.249c-10.168,18.415-13.559,47.677-10.265,68.43c1.689,10.643,8.123,20.998,11.928,31.045
	c1.395,3.683,2.354,8.247,4.805,11.244c1.664-0.91,3.108-2.396,4.524-3.583"/>
<path fill="none" stroke="#0D1F22" stroke-width="4" stroke-miterlimit="10" d="M287,62.5c0,56.597,0,115.631,0,171"/>
<path fill="none" stroke="#0D1F22" stroke-width="4" stroke-miterlimit="10" d="M315.5,63.5c0,40.586,0,81.173,0,121.759
	c0,16.582-1.359,33.861,0.085,50.405c0.355,4.06,0.239,9.652,1.915,13.336"/>
<path fill="none" stroke="#0D1F22" stroke-width="4" stroke-miterlimit="10" d="M275.5,146.5
	c18.348,0.018,36.735-1.827,54.924-4.234c8.27-1.094,16.658-4.132,25.076-3.766"/>
<path fill="none" stroke="#0D1F22" stroke-width="4" stroke-miterlimit="10" d="M348.5,122.5
	c-9.443,0.054-18.165,4.118-27.477,4.066c0.32,2.245,2.477,4.252,3.93,6.118c4.167,5.349,7.98,11.021,11.108,17.054
	c4.35,8.391,6.147,17.609,9.964,26.109c0.058-9.555,15.927-12.17,22.899-12.423c0.406-5.541-3.671-12.475-4.897-17.874
	c-2.893-12.734-3.526-25.653-5.537-38.443c-0.201,3.683,3.227,6.276,5.218,9.031c6.732,9.314,12.217,19.686,18.188,29.5
	c4.335,7.125,8.533,17.884,15.003,23.329c0.266-2.433-0.716-4.036-1.315-6.417c-4.868-19.331-5.111-39.202-5.164-59.038
	c-0.013-4.68-2.854-54.632,1.081-56.014"/>
<path fill="none" stroke="#0D1F22" stroke-width="4" stroke-miterlimit="10" d="M399.5,178c0.028-29.476,3.641-58.513,5.075-87.853
	c4.117,8.432,4.393,19.003,7.972,27.862c3.829,9.475,8.401,18.714,12.739,27.962c1.489,3.175,3.812,6.163,4.574,9.488
	c-10.083-2.781-25.925-9.946-32.36-18.46"/>
<path fill="none" stroke="#0D1F22" stroke-width="4" stroke-miterlimit="10" d="M441.5,116c-5.585,4.646-5.116,24.271-4.5,31.389
	c1.014,11.72,15.475,13.341,23.4,6.485c11.16-9.654,14.495-28.582,2.283-38.983c-5.993-5.104-21.666-12.408-24.184,0.109"/>
</svg>
